# xmcd
#
# Track frame offsets: 
#        150
#        17035
#        26627
#        40544
#        59898
#        78302
#        96742
#        115502
#        127452
#        144534
#        161789
#
# Disc length: 2434 seconds
#
# Revision: 0
# Processed by: cddbd v1.5.2PL0 Copyright (c) Steve Scherf et al.
# Submitted via: ExactAudioCopy v0.95a5
#
DISCID=9d09800b
DTITLE=Redefined - Kalei Gamiao
DYEAR=2011
DGENRE=Folk
TTITLE0=2011
TTITLE1=Feel The Beat
TTITLE2=Ain't no sunshine
TTITLE3=Mach 4
TTITLE4=Soulfire
TTITLE5=From The Heart
TTITLE6=Fours String Fury
TTITLE7=Office Theme
TTITLE8=Waltz with me
TTITLE9=Only Hope
TTITLE10=The Unknown
EXTD=
EXTT0=
EXTT1=
EXTT2=
EXTT3=
EXTT4=
EXTT5=
EXTT6=
EXTT7=
EXTT8=
EXTT9=
EXTT10=
PLAYORDER=
